<?xml version="1.0" encoding="utf-8"?>
<!-- Generator: Adobe Illustrator 23.0.4, SVG Export Plug-In . SVG Version: 6.00 Build 0)  -->
<svg version="1.1" id="Ebene_1" xmlns="http://www.w3.org/2000/svg" xmlns:xlink="http://www.w3.org/1999/xlink" x="0px" y="0px"
	 viewBox="0 0 289.12 109.74" style="enable-background:new 0 0 289.12 109.74;" xml:space="preserve">
<style type="text/css">
	.st0{fill:#CC1917;}
</style>
<g>
	<path class="st0" d="M16.25,18.1C3.67,30.67,2.72,45.33,2.65,59.73h14.43c0.06-12.64,0.78-22.84,9.37-31.43
		c6.94-6.94,15.22-10.31,25.32-10.31V3.56C37.84,3.56,25.89,8.45,16.25,18.1z"/>
	<path d="M114,44.35c-15.85,0-26.65,11.27-26.65,31.23c0,24.77,13.85,31.35,28.29,31.35c11.04,0,17.02-3.4,23.25-9.63l-9.28-9.04
		c-3.87,3.88-7.16,5.75-13.85,5.75c-8.57,0-13.39-5.75-13.39-13.62h38.28v-6.81C140.65,56.79,131.02,44.35,114,44.35z M102.37,69.95
		c0.12-2.7,0.47-4.34,1.41-6.58c1.64-3.64,5.05-6.34,10.21-6.34c5.16,0,8.57,2.7,10.21,6.34c0.94,2.23,1.29,3.87,1.41,6.58H102.37z
		 M209.66,44.35c-7.63,0-13.15,2.35-18.32,7.75c-3.88-5.28-9.39-7.75-16.2-7.75c-5.64,0-11.27,2.23-15.26,6.34v-5.64h-14.91v61.17
		h15.26V69.24c0-8.34,5.4-11.16,10.21-11.16c4.81,0,10.1,2.82,10.1,11.16v36.98h15.26V68.89c0-7.98,5.52-10.8,10.22-10.8
		c4.81,0,10.1,2.82,10.1,11.16v36.98h15.26V67.13c0-6.69-1.76-12.45-6.69-17.38C221.28,46.35,215.76,44.35,209.66,44.35z
		 M260.05,44.35c-10.21,0-16.08,1.88-22.08,8.45l9.75,9.51c3.17-3.64,5.87-5.05,11.74-5.05c8.1,0,11.39,2.93,11.39,9.63v3.05h-14.44
		c-14.21,0-20.9,7.98-20.9,17.73c0,5.4,1.76,10.33,5.05,13.74c3.64,3.64,8.69,5.4,15.62,5.4c7.04,0,10.92-1.76,15.03-5.87v5.28
		h14.91V65.95C286.12,51.63,277.19,44.35,260.05,44.35z M270.85,83.68c0,3.76-0.59,6.22-2.23,7.75c-2.7,2.58-5.4,2.94-9.63,2.94
		c-5.99,0-8.81-2.82-8.81-7.05c0-4.34,3.05-6.93,8.57-6.93h12.09V83.68z M51.77,73.35h15.38v3.17c0,4.34-1.06,8.1-3.76,11.15
		c-2.7,2.94-6.69,4.7-11.63,4.7c-4.46,0-8.1-1.64-10.45-4.34c-3.17-3.52-3.99-7.52-3.99-23.6c0-16.08,0.82-19.96,3.99-23.48
		c2.35-2.7,5.99-4.46,10.45-4.46c8.34,0,13.15,4.34,15.03,12.21h16.44C81,34.6,71.14,21.93,51.77,21.93
		c-9.39,0-16.67,3.29-22.54,9.16c-8.45,8.45-8.22,18.9-8.22,33.34c0,14.44-0.23,24.89,8.22,33.34c5.87,5.87,13.39,9.16,22.54,9.16
		c8.93,0,16.91-2.59,23.6-9.51c5.87-6.1,7.98-13.38,7.98-25.48V59.73H51.77V73.35z"/>
</g>
</svg>
